inDegrees=no
num_controls=7
num_derivatives=13
num_iterations=148
num_multipliers=7
num_parameters=0
num_slacks=7
num_states=26
objective=0.446463
objective_accelerations=0.049602
objective_balance=0.007600
objective_effort=0.036860
objective_height=0.347544
objective_ligament=0.004856
solver_duration=2331.389860
status=Solve_Succeeded
success=true
DataType=double
version=3
OpenSimVersion=4.5
endheader
time	/jointset/ground_pelvis/pelvis_tilt/value	/jointset/ground_pelvis/pelvis_tx/value	/jointset/ground_pelvis/pelvis_ty/value	/jointset/hip_l/hip_flexion_l/value	/jointset/hip_l/hip_adduction_l/value	/jointset/hip_l/hip_rotation_l/value	/jointset/back/lumbar_extension/value	/jointset/patellofemoral_l/patellar_flexion_l/value	/jointset/knee_l/knee_flexion_l/value	/jointset/knee_l/knee_adduction_l/value	/jointset/knee_l/knee_rotation_l/value	/jointset/ankle_l/ankle_angle_l/value	/jointset/subtalar_l/subtalar_angle_l/value	/jointset/ground_pelvis/pelvis_tilt/speed	/jointset/ground_pelvis/pelvis_tx/speed	/jointset/ground_pelvis/pelvis_ty/speed	/jointset/hip_l/hip_flexion_l/speed	/jointset/hip_l/hip_adduction_l/speed	/jointset/hip_l/hip_rotation_l/speed	/jointset/back/lumbar_extension/speed	/jointset/patellofemoral_l/patellar_flexion_l/speed	/jointset/knee_l/knee_flexion_l/speed	/jointset/knee_l/knee_adduction_l/speed	/jointset/knee_l/knee_rotation_l/speed	/jointset/ankle_l/ankle_angle_l/speed	/jointset/subtalar_l/subtalar_angle_l/speed	/forceset/tau_hip_flexion_l	/forceset/tau_hip_adduction_l	/forceset/tau_hip_rotation_l	/forceset/tau_knee_flexion_l	/forceset/tau_ankle_angle_l	/forceset/tau_subtalar_angle_l	/forceset/tau_lumbar_extension	lambda_cid13_p0	lambda_cid13_p1	lambda_cid13_p2	lambda_cid13_p3	lambda_cid13_p4	lambda_cid13_p5	lambda_cid14_p0	/jointset/ground_pelvis/pelvis_tilt/accel	/jointset/ground_pelvis/pelvis_tx/accel	/jointset/ground_pelvis/pelvis_ty/accel	/jointset/hip_l/hip_flexion_l/accel	/jointset/hip_l/hip_adduction_l/accel	/jointset/hip_l/hip_rotation_l/accel	/jointset/back/lumbar_extension/accel	/jointset/patellofemoral_l/patellar_flexion_l/accel	/jointset/knee_l/knee_flexion_l/accel	/jointset/knee_l/knee_adduction_l/accel	/jointset/knee_l/knee_rotation_l/accel	/jointset/ankle_l/ankle_angle_l/accel	/jointset/subtalar_l/subtalar_angle_l/accel	gamma_cid13_p0	gamma_cid13_p1	gamma_cid13_p2	gamma_cid13_p3	gamma_cid13_p4	gamma_cid13_p5	gamma_cid14_p0
1.5	-0.4509381734493802	-0.07694139775609592	0.7595237832696278	1.281427416174978	-0.3101287697886103	-0.04237240443480399	-0.3457942740477517	0.7002287794165653	0.7002287794166244	-0.1733952222459814	0.1743927894411338	0.03621635837660105	-0.04975896634137508	0.7367926506003784	0.2668617798779649	0.5016771185346113	-2.375243693466619	0.0296276720660857	-0.6194691956989341	0.5623107259424984	-1.77812987124814	-1.778129871248267	0.005225147222170449	-0.00161399723889721	-0.2349152985101774	0.004281957995492217	-0.250951602391935	0.01791826577093835	-0.02146417517006122	-0.2037814371338087	0.1439754466273465	0.04203972733262046	0.2256555956603693	7.322555589261818	-22.18915707874204	6.161136946194958	-5.780847537335347	-609.2866157177523	-58.4255559176839	-27.64862422378002	0.6392664617825111	0.6858255060515401	-0.3171713603456908	-1.503119058409731	0.5970962778483735	-0.2920948317629524	1.726631938105158	-1.081861516365335	-1.081861516365435	0.03001847816147874	-0.0229500727829213	-0.1631922911703111	0.5722592714591265	3.018899441271146e-07	7.186284557252313e-07	-1.492538633137783e-06	-1.076865017270154e-07	3.823659527689018e-07	-8.183787904973002e-08	3.193410665163273e-07
1.51	-0.4435386286004263	-0.07423869968492523	0.7645237387134549	1.257601987790885	-0.3098038251328249	-0.04858080972077914	-0.3400863649508197	0.6823955787355599	0.6823955787356589	-0.173344012408208	0.1743764884426203	0.03385914977288739	-0.04968882151314012	0.743010890342692	0.273647496482079	0.4982136064504713	-2.389511853163817	0.0353642966580533	-0.622105420292782	0.5791898934515615	-1.788260227001472	-1.788260227001588	0.004988538964458289	-0.00166350536314042	-0.2364760176146212	0.009751030090547544	-0.2427722551203939	0.01716071176189799	-0.02134164858370338	-0.2024916053196484	0.1440488734955996	0.04144888738974654	0.2193116847368403	7.59186393309287	-22.0871185276208	6.26755625375789	-5.788124879709207	-604.7223052088358	-58.77045170819238	-28.68212044558686	0.5973163679820191	0.6704000585295755	-0.3759327219341174	-1.339110690156385	0.5623920665174487	-0.2331620565062963	1.656379158405628	-0.9411703699558139	-0.9411703699539788	-0.05460672528332288	0.001684834534463425	-0.144941900364549	0.5347795533177094	2.242443097326907e-07	9.261764736334277e-07	-1.119239375417352e-06	-1.680697978161927e-08	3.37830309655524e-07	-1.033639797225595e-08	2.84986776366443e-07
1.52	-0.436080058626545	-0.07146905338352581	0.7694860607185434	1.233643788556863	-0.3094214249277907	-0.05481233240935292	-0.3342121001785774	0.6644685649439951	0.6644685649441311	-0.1732959899025242	0.174359219566217	0.03148784794207268	-0.0495638762889968	0.7485976755860569	0.280251425923714	0.4941504307868884	-2.401797863452273	0.04111878191587984	-0.6240926762190526	0.5955818610045771	-1.79689249336035	-1.796892493360453	0.004587680804917717	-0.001807572816204498	-0.2377339439303895	0.01524203717716308	-0.2345929078488477	0.01640315775286362	-0.02121912199738018	-0.2012017735054822	0.1441223003638546	0.04085804744687872	0.2129677738133147	7.854155638942685	-21.98670229224988	6.377491004042774	-5.788076464803701	-600.2739230136026	-59.1836066169518	-29.6989494284921	0.5129755619927338	0.6494680735557371	-0.4371040762342641	-1.106689176661117	0.6006684110201616	-0.1623010982474826	1.62919194689567	-0.7822436374743944	-0.7822436374744146	-0.002831502204212005	-0.04186193854707783	-0.1026337334351713	0.5766462697711719	1.574389157805733e-07	1.096006793934676e-06	-8.06814659883933e-07	5.561991405415367e-08	3.024739681811351e-07	4.757277650004396e-08	2.544857424270665e-07
1.53	-0.4285687873027907	-0.0686343717514119	0.7744047938793278	1.209572771333938	-0.3089812489108031	-0.06106150997446452	-0.3281764642896456	0.6464629773142154	0.6464629773142033	-0.1732518898467202	0.1743407343558129	0.02910555751454413	-0.04938374441792195	0.7535491922621638	0.2866444284354558	0.489500160970329	-2.412062699941503	0.04691929345756463	-0.6256521468621367	0.6114522589753464	-1.803963135640447	-1.803963135640502	0.004223872158712697	-0.00189552784053016	-0.238673003696151	0.02078843162386824	-0.2265008697376165	0.01558595957770163	-0.02109511831732833	-0.1996940206394033	0.1438463806079122	0.04016601847429812	0.2066269489371338	7.997035722223244	-21.82121408181985	6.476802838612624	-5.642964653632012	-595.8671260239903	-59.48270672424032	-30.6946163321013	0.4701468505164635	0.628172874302738	-0.4933418615325476	-0.9349277433669884	0.5700621384388973	-0.1389447937524955	1.552005051151082	-0.6302327683482442	-0.6302327683410772	-0.05421780433362712	0.006976390630811184	-0.08185713620527521	0.5440961270635623	1.021512772984066e-07	1.225762060528543e-06	-5.590691454242136e-07	1.084408905234522e-07	2.768706346981718e-07	9.104012520434649e-08	2.280787932113544e-07
1.54	-0.4210112193862568	-0.06573696878731672	0.7792741536565133	1.185409396374458	-0.3084830038558596	-0.06732351719528981	-0.3219849161552095	0.6283945316126195	0.6283945316124621	-0.1732116403290751	0.1743212173301701	0.02671541348174601	-0.04914805658339134	0.7578569941421468	0.2927956923199634	0.4842757540671305	-2.420269410763258	0.052732589507101	-0.6266586073617665	0.6267643101054591	-1.809464107723379	-1.809464107723387	0.003817573172309238	-0.002013935864612057	-0.2393046649842573	0.02635322986830946	-0.218408831626386	0.01476876140253827	-0.02097111463724445	-0.1981862677733298	0.1435704608519688	0.03947398950171607	0.2002861240609534	8.131734317842147	-21.65649166915705	6.578747877349826	-5.479849971202356	-591.5886441496549	-59.83922793064415	-31.66472229600683	0.3842326027679318	0.6011203481089344	-0.5519314935620893	-0.6950640431662078	0.6032253125904719	-0.05169906955666088	1.517522578764291	-0.468309598041418	-0.4683095980414164	-0.01132957024390609	-0.0479525384983114	-0.04115403790408412	0.5803270293183894	6.668078099420944e-08	1.323833373534531e-06	-4.13065802623577e-07	1.427036890023385e-07	2.636335544217524e-07	1.260244696853046e-07	2.135431315864677e-07
1.55	-0.4134138140996145	-0.06277928294416946	0.7840884798171802	1.161174185579884	-0.3079266253436732	-0.07359303347522955	-0.3156430957441955	0.6102789589890263	0.6102789589888881	-0.1731756209345277	0.1743005240955711	0.02432056124071591	-0.04885667133185224	0.7615115223262793	0.2986983439265511	0.4785012406187821	-2.42642904773591	0.05853959056636117	-0.6271526367726167	0.641503156178973	-1.81338541835804	-1.813385418358039	0.003377204574733694	-0.002131201650383938	-0.2396078461817812	0.0319231184669365	-0.2103068396734188	0.01375477240153448	-0.02090480480532507	-0.1968685265443821	0.1436803571156725	0.03861847052899407	0.193935665777512	8.375524823770764	-21.44192021235254	6.675091053251139	-5.41584870673258	-587.5032162550012	-60.12798022895603	-32.60474244567316	0.3391952708633477	0.5784002576216088	-0.603393846326587	-0.5248409370557379	0.5687713497267228	-0.03422978548658551	1.437573233836983	-0.3143344423366036	-0.3143344423351864	-0.06152730540860121	0.005555198361659099	-0.01619555311310223	0.5450343908340636	5.404307893854103e-08	1.385399261754485e-06	-3.842871358649208e-07	1.555842389270554e-07	2.646445484920026e-07	1.512349179958881e-07	2.12685257837966e-07
1.56	-0.4057832370622061	-0.05976385804681882	0.7888424243281925	1.136887692933034	-0.3073123100514678	-0.0798646850310047	-0.309156785350008	0.5921321147298547	0.5921321147297356	-0.1731442325861343	0.1742784919625102	0.02192441810922316	-0.04850964427118702	0.7644913442955124	0.3043435031606446	0.4721994241362089	-2.430525781218209	0.06431994551093903	-0.6270856625289623	0.6556623067401711	-1.815718434839027	-1.815718434839016	0.002891363941390625	-0.002281715557025215	-0.2395628430767663	0.03748159169353292	-0.2022048477204496	0.01274078340053238	-0.02083849497340208	-0.1955507853154348	0.1437902533793766	0.03776295155627395	0.1875852074940725	8.610386083920817	-21.22768592417851	6.773659047394025	-5.328138885196914	-583.5544989377096	-60.47421395093139	-33.51025718253226	0.2492913597880116	0.5496218736101374	-0.6573921004070234	-0.282483345095824	0.5978960896540072	0.06050166134423229	1.401583476301087	-0.1506507673065418	-0.1506507673065404	-0.02042397739741654	-0.05460216267217809	0.02848282260374233	0.5780439549122747	4.157451820791058e-08	1.435186331450373e-06	-3.585018950754131e-07	1.665882209374146e-07	2.646594812378485e-07	1.748077388448606e-07	2.10813520282996e-07
1.57	-0.3981262462934164	-0.05669333572812174	0.793530785642978	1.112570565789592	-0.3066403423536584	-0.08613304889751577	-0.3025318491679957	0.573969934503501	0.5739699345034681	-0.173117808235804	0.1742548987750112	0.01953048254200556	-0.04810709475071594	0.766791955370245	0.3097107728524259	0.4653917376701026	-2.43255017161559	0.0700654096754109	-0.6264988294875995	0.6692215134095861	-1.816447342323659	-1.816447342323634	0.00239048340821391	-0.00244047925752979	-0.2391655997263968	0.0430235726234857	-0.1942273383691194	0.01161063527819292	-0.02080102912788785	-0.1941432511987486	0.1438105343288676	0.03681956962238533	0.1812994515134212	8.803002462385921	-20.96837607414571	6.865589038052838	-5.190047311762537	-579.7787769619695	-60.75037827804506	-34.37681005323301	0.2032279051833424	0.5227874044324216	-0.704569548092921	-0.1099817031587827	0.5614881778532428	0.07123529333150301	1.317576824300217	0.006488303732054455	0.006488303734128998	-0.06513332089422676	0.003090389554070525	0.05415827851565547	0.5413681678284129	2.931738413357756e-08	1.47024987799118e-06	-3.364584367473411e-07	1.752464930548266e-07	2.634293373281891e-07	1.963335253668191e-07	2.076744529699408e-07
